<svg width="102" height="131" viewBox="0 0 102 131" fill="none" xmlns="http://www.w3.org/2000/svg">
<circle cx="7.90484" cy="7.2381" r="7.2381" fill="#C1E58A"/>
<circle cx="7.90484" cy="36.1905" r="7.2381" fill="#C1E58A"/>
<circle cx="7.90484" cy="65.1429" r="7.2381" fill="#C1E58A"/>
<circle cx="7.90484" cy="94.0952" r="7.2381" fill="#C1E58A"/>
<circle cx="7.90484" cy="123.048" r="7.2381" fill="#C1E58A"/>
<circle cx="36.8572" cy="7.2381" r="7.2381" fill="#C1E58A"/>
<circle cx="36.8572" cy="36.1905" r="7.2381" fill="#C1E58A"/>
<circle cx="36.8572" cy="65.1429" r="7.2381" fill="#C1E58A"/>
<circle cx="36.8572" cy="94.0952" r="7.2381" fill="#C1E58A"/>
<circle cx="36.8572" cy="123.048" r="7.2381" fill="#C1E58A"/>
<circle cx="65.8095" cy="7.2381" r="7.2381" fill="#C1E58A"/>
<circle cx="65.8095" cy="36.1905" r="7.2381" fill="#C1E58A"/>
<circle cx="65.8095" cy="65.1429" r="7.2381" fill="#C1E58A"/>
<circle cx="65.8095" cy="94.0952" r="7.2381" fill="#C1E58A"/>
<circle cx="65.8095" cy="123.048" r="7.2381" fill="#C1E58A"/>
<circle cx="94.762" cy="7.2381" r="7.2381" fill="#C1E58A"/>
<circle cx="94.762" cy="36.1905" r="7.2381" fill="#C1E58A"/>
<circle cx="94.762" cy="65.1429" r="7.2381" fill="#C1E58A"/>
<circle cx="94.762" cy="94.0952" r="7.2381" fill="#C1E58A"/>
<circle cx="94.762" cy="123.048" r="7.2381" fill="#C1E58A"/>
</svg>
