<svg width="88" height="114" viewBox="0 0 88 114" fill="none" xmlns="http://www.w3.org/2000/svg">
<circle cx="6.28571" cy="6.28571" r="6.28571" fill="#F8CCA4"/>
<circle cx="6.28571" cy="31.4286" r="6.28571" fill="#F8CCA4"/>
<circle cx="6.28571" cy="56.5714" r="6.28571" fill="#F8CCA4"/>
<circle cx="6.28571" cy="81.7143" r="6.28571" fill="#F8CCA4"/>
<circle cx="6.28571" cy="106.857" r="6.28571" fill="#F8CCA4"/>
<circle cx="31.4285" cy="6.28571" r="6.28571" fill="#F8CCA4"/>
<circle cx="31.4285" cy="31.4286" r="6.28571" fill="#F8CCA4"/>
<circle cx="31.4285" cy="56.5714" r="6.28571" fill="#F8CCA4"/>
<circle cx="31.4285" cy="81.7143" r="6.28571" fill="#F8CCA4"/>
<circle cx="31.4285" cy="106.857" r="6.28571" fill="#F8CCA4"/>
<circle cx="56.5714" cy="6.28571" r="6.28571" fill="#F8CCA4"/>
<circle cx="56.5714" cy="31.4286" r="6.28571" fill="#F8CCA4"/>
<circle cx="56.5714" cy="56.5714" r="6.28571" fill="#F8CCA4"/>
<circle cx="56.5714" cy="81.7143" r="6.28571" fill="#F8CCA4"/>
<circle cx="56.5714" cy="106.857" r="6.28571" fill="#F8CCA4"/>
<circle cx="81.7142" cy="6.28571" r="6.28571" fill="#F8CCA4"/>
<circle cx="81.7142" cy="31.4286" r="6.28571" fill="#F8CCA4"/>
<circle cx="81.7142" cy="56.5714" r="6.28571" fill="#F8CCA4"/>
<circle cx="81.7142" cy="81.7143" r="6.28571" fill="#F8CCA4"/>
<circle cx="81.7142" cy="106.857" r="6.28571" fill="#F8CCA4"/>
</svg>
