<svg width="102" height="131" viewBox="0 0 102 131" fill="none" xmlns="http://www.w3.org/2000/svg">
<path d="M14.4762 7.2381C14.4762 11.2356 11.2356 14.4762 7.2381 14.4762C3.24061 14.4762 0 11.2356 0 7.2381C0 3.24061 3.24061 0 7.2381 0C11.2356 0 14.4762 3.24061 14.4762 7.2381Z" fill="#C1E58A"/>
<path d="M14.4762 36.1905C14.4762 40.188 11.2356 43.4286 7.2381 43.4286C3.24061 43.4286 0 40.188 0 36.1905C0 32.193 3.24061 28.9524 7.2381 28.9524C11.2356 28.9524 14.4762 32.193 14.4762 36.1905Z" fill="#C1E58A"/>
<path d="M14.4762 65.1429C14.4762 69.1403 11.2356 72.381 7.2381 72.381C3.24061 72.381 0 69.1403 0 65.1429C0 61.1454 3.24061 57.9048 7.2381 57.9048C11.2356 57.9048 14.4762 61.1454 14.4762 65.1429Z" fill="#C1E58A"/>
<path d="M14.4762 94.0952C14.4762 98.0927 11.2356 101.333 7.2381 101.333C3.24061 101.333 0 98.0927 0 94.0952C0 90.0978 3.24061 86.8571 7.2381 86.8571C11.2356 86.8571 14.4762 90.0978 14.4762 94.0952Z" fill="#C1E58A"/>
<path d="M14.4762 123.048C14.4762 127.045 11.2356 130.286 7.2381 130.286C3.24061 130.286 0 127.045 0 123.048C0 119.05 3.24061 115.81 7.2381 115.81C11.2356 115.81 14.4762 119.05 14.4762 123.048Z" fill="#C1E58A"/>
<path d="M43.4286 7.2381C43.4286 11.2356 40.188 14.4762 36.1905 14.4762C32.1931 14.4762 28.9525 11.2356 28.9525 7.2381C28.9525 3.24061 32.1931 0 36.1905 0C40.188 0 43.4286 3.24061 43.4286 7.2381Z" fill="#C1E58A"/>
<path d="M43.4286 36.1905C43.4286 40.188 40.188 43.4286 36.1905 43.4286C32.1931 43.4286 28.9525 40.188 28.9525 36.1905C28.9525 32.193 32.1931 28.9524 36.1905 28.9524C40.188 28.9524 43.4286 32.193 43.4286 36.1905Z" fill="#C1E58A"/>
<path d="M43.4286 65.1429C43.4286 69.1403 40.188 72.381 36.1905 72.381C32.1931 72.381 28.9525 69.1403 28.9525 65.1429C28.9525 61.1454 32.1931 57.9048 36.1905 57.9048C40.188 57.9048 43.4286 61.1454 43.4286 65.1429Z" fill="#C1E58A"/>
<path d="M43.4286 94.0952C43.4286 98.0927 40.188 101.333 36.1905 101.333C32.1931 101.333 28.9525 98.0927 28.9525 94.0952C28.9525 90.0978 32.1931 86.8571 36.1905 86.8571C40.188 86.8571 43.4286 90.0978 43.4286 94.0952Z" fill="#C1E58A"/>
<path d="M43.4286 123.048C43.4286 127.045 40.188 130.286 36.1905 130.286C32.1931 130.286 28.9525 127.045 28.9525 123.048C28.9525 119.05 32.1931 115.81 36.1905 115.81C40.188 115.81 43.4286 119.05 43.4286 123.048Z" fill="#C1E58A"/>
<path d="M72.3809 7.2381C72.3809 11.2356 69.1403 14.4762 65.1428 14.4762C61.1453 14.4762 57.9047 11.2356 57.9047 7.2381C57.9047 3.24061 61.1453 0 65.1428 0C69.1403 0 72.3809 3.24061 72.3809 7.2381Z" fill="#C1E58A"/>
<path d="M72.3809 36.1905C72.3809 40.188 69.1403 43.4286 65.1428 43.4286C61.1453 43.4286 57.9047 40.188 57.9047 36.1905C57.9047 32.193 61.1453 28.9524 65.1428 28.9524C69.1403 28.9524 72.3809 32.193 72.3809 36.1905Z" fill="#C1E58A"/>
<path d="M72.3809 65.1429C72.3809 69.1403 69.1403 72.381 65.1428 72.381C61.1453 72.381 57.9047 69.1403 57.9047 65.1429C57.9047 61.1454 61.1453 57.9048 65.1428 57.9048C69.1403 57.9048 72.3809 61.1454 72.3809 65.1429Z" fill="#C1E58A"/>
<path d="M72.3809 94.0952C72.3809 98.0927 69.1403 101.333 65.1428 101.333C61.1453 101.333 57.9047 98.0927 57.9047 94.0952C57.9047 90.0978 61.1453 86.8571 65.1428 86.8571C69.1403 86.8571 72.3809 90.0978 72.3809 94.0952Z" fill="#C1E58A"/>
<path d="M72.3809 123.048C72.3809 127.045 69.1403 130.286 65.1428 130.286C61.1453 130.286 57.9047 127.045 57.9047 123.048C57.9047 119.05 61.1453 115.81 65.1428 115.81C69.1403 115.81 72.3809 119.05 72.3809 123.048Z" fill="#C1E58A"/>
<path d="M101.333 7.2381C101.333 11.2356 98.0928 14.4762 94.0953 14.4762C90.0978 14.4762 86.8572 11.2356 86.8572 7.2381C86.8572 3.24061 90.0978 0 94.0953 0C98.0928 0 101.333 3.24061 101.333 7.2381Z" fill="#C1E58A"/>
<path d="M101.333 36.1905C101.333 40.188 98.0928 43.4286 94.0953 43.4286C90.0978 43.4286 86.8572 40.188 86.8572 36.1905C86.8572 32.193 90.0978 28.9524 94.0953 28.9524C98.0928 28.9524 101.333 32.193 101.333 36.1905Z" fill="#C1E58A"/>
<path d="M101.333 65.1429C101.333 69.1403 98.0928 72.381 94.0953 72.381C90.0978 72.381 86.8572 69.1403 86.8572 65.1429C86.8572 61.1454 90.0978 57.9048 94.0953 57.9048C98.0928 57.9048 101.333 61.1454 101.333 65.1429Z" fill="#C1E58A"/>
<path d="M101.333 94.0952C101.333 98.0927 98.0928 101.333 94.0953 101.333C90.0978 101.333 86.8572 98.0927 86.8572 94.0952C86.8572 90.0978 90.0978 86.8571 94.0953 86.8571C98.0928 86.8571 101.333 90.0978 101.333 94.0952Z" fill="#C1E58A"/>
<path d="M101.333 123.048C101.333 127.045 98.0928 130.286 94.0953 130.286C90.0978 130.286 86.8572 127.045 86.8572 123.048C86.8572 119.05 90.0978 115.81 94.0953 115.81C98.0928 115.81 101.333 119.05 101.333 123.048Z" fill="#C1E58A"/>
</svg>
