<svg width="47" height="47" viewBox="0 0 47 47" fill="none" xmlns="http://www.w3.org/2000/svg">
<path d="M21.0559 38.6771C21.0559 40.0289 22.152 41.125 23.5038 41.125C24.8558 41.125 25.9517 40.0289 25.9517 38.6771V25.9479H38.6809C40.0329 25.9479 41.1288 24.8518 41.1288 23.5C41.1288 22.148 40.0329 21.0521 38.6809 21.0521H25.9517V8.32292C25.9517 6.97098 24.8558 5.875 23.5038 5.875C22.152 5.875 21.0559 6.97096 21.0559 8.32292V21.0521H8.32682C6.97489 21.0521 5.87891 22.148 5.87891 23.5C5.87891 24.8518 6.97489 25.9479 8.32682 25.9479H21.0559V38.6771Z" fill="#A3D950"/>
</svg>
